# xmcd
#
# Track frame offsets:
# 150
# 18190
# 42449
# 89643
# 118792
# 146955
# 169707
# 191486
# 216634
# 252064
# 271003
#
# Disc length: 3950 seconds
#
# Revision: 1
# Processed by: cddbd v1.4PL0 Copyright (c) Steve Scherf et al.
# Submitted via: Axialis_AX_CDPlayer 2.6
#
DISCID=a10f6c0b
DTITLE=D¯EM - List do R. na 12 g³osów vol. 1
DYEAR=1900
DGENRE=
TTITLE0=D¯EM - balada o dziwnym malarzu [instrumentalnie]
TTITLE1=ANDRZEJ ZEÑCZEWSKI - dzieñ w którym pêk³o niebo
TTITLE2=ANDRZEJ ZEÑCZEWSKI - naiwne pytania
TTITLE3=JAROS£AW WAJK - tylko ja i ty
TTITLE4=JAROS£AW WAJK - wehiku³ czasu
TTITLE5=JERZY DURAL - bo¿e daj dom
TTITLE6=JERZY DURAL - wokó³ sami lunatycy
TTITLE7=MARTYNA JAKUBOWICZ - ma³a aleja ró¿
TTITLE8=MARTYNA JAKUBOWICZ - skazany na bluesa
TTITLE9=WOJCIECH WAGLEWSKI - kiepska gra [intrumentalna]
TTITLE10=WOJCIECH WAGLEWSKI - kim jestem, jestem sobie
EXTD=
EXTT0=
EXTT1=
EXTT2=
EXTT3=
EXTT4=
EXTT5=
EXTT6=
EXTT7=
EXTT8=
EXTT9=
EXTT10=
PLAYORDER=
